<?xml version="1.0" standalone="no"?>
<!DOCTYPE svg PUBLIC "-//W3C//DTD SVG 20010904//EN"
 "http://www.w3.org/TR/2001/REC-SVG-20010904/DTD/svg10.dtd">
<svg version="1.0" xmlns="http://www.w3.org/2000/svg"
 width="1080.000000pt" height="2400.000000pt" viewBox="0 0 1080.000000 2400.000000"
 preserveAspectRatio="xMidYMid meet">
<metadata>
Created by potrace 1.16, written by Peter Selinger 2001-2019
</metadata>
<g transform="translate(0.000000,2400.000000) scale(0.100000,-0.100000)"
fill="#000000" stroke="none">
<path d="M0 12000 l0 -12000 5400 0 5400 0 0 12000 0 12000 -5400 0 -5400 0 0
-12000z m1235 5415 c28 -7 75 -23 105 -35 30 -12 62 -23 70 -25 63 -15 99 -25
125 -34 95 -35 220 -71 244 -71 15 0 32 -5 37 -10 6 -6 19 -12 30 -14 49 -10
114 -29 172 -52 34 -13 76 -24 92 -24 16 0 53 -9 82 -20 28 -11 54 -18 56 -15
3 2 17 -2 33 -10 15 -8 39 -15 52 -15 13 0 32 -6 42 -14 10 -7 27 -11 37 -8
10 2 18 0 18 -6 0 -5 26 -13 58 -16 31 -4 80 -14 107 -23 28 -9 64 -16 80 -17
17 0 36 -6 43 -13 7 -7 25 -13 40 -13 15 0 47 -6 72 -14 25 -8 86 -22 135 -31
50 -9 104 -20 120 -25 49 -13 165 -38 235 -50 36 -7 79 -16 96 -21 17 -5 38
-9 48 -9 12 0 16 -5 12 -15 -3 -9 0 -15 8 -15 8 0 16 5 18 11 3 8 20 7 60 -5
31 -9 67 -16 81 -16 14 0 33 -7 41 -16 9 -8 16 -11 16 -7 0 10 64 8 81 -3 6
-3 28 -9 48 -11 20 -3 41 -9 46 -13 6 -4 39 -10 75 -14 99 -11 231 -36 267
-51 20 -9 33 -10 35 -4 2 7 13 7 31 0 16 -6 45 -11 65 -11 35 0 142 -17 172
-28 8 -3 26 -6 40 -8 69 -6 246 -36 259 -44 9 -4 40 -10 69 -14 30 -3 84 -11
120 -16 37 -5 94 -10 127 -10 37 0 68 -6 79 -15 11 -8 28 -13 37 -10 10 3 20
2 23 -3 3 -5 28 -7 55 -6 58 4 181 -20 191 -36 4 -7 32 -11 66 -10 61 2 327
-25 354 -36 8 -3 40 -7 70 -9 113 -8 154 -15 176 -30 13 -8 32 -15 44 -15 11
0 20 -4 20 -10 0 -5 7 -10 15 -10 8 0 15 4 15 9 0 11 82 4 210 -19 58 -10 112
-18 120 -18 51 1 146 -24 174 -46 26 -20 41 -23 72 -19 26 3 69 -4 129 -21 49
-14 101 -26 116 -26 14 0 37 -9 50 -21 13 -11 31 -18 41 -16 9 3 25 -1 35 -8
10 -7 34 -15 53 -18 77 -13 208 -57 272 -92 14 -8 34 -15 43 -15 9 0 31 -6 48
-14 18 -8 39 -17 47 -20 8 -3 47 -24 85 -45 39 -22 90 -50 115 -64 81 -43 95
-52 103 -64 4 -7 14 -13 21 -13 15 0 58 -48 52 -58 -3 -5 -1 -14 4 -22 7 -12
10 -12 16 3 8 23 21 22 29 -2 4 -13 11 -18 22 -14 12 5 15 2 10 -10 -4 -12 0
-18 16 -22 13 -4 31 -17 41 -30 10 -13 24 -21 31 -19 8 3 21 -13 35 -41 12
-26 29 -49 36 -52 8 -3 14 -11 14 -19 0 -8 6 -14 14 -14 8 0 21 -17 29 -39 9
-21 22 -45 29 -52 33 -35 56 -98 52 -141 -3 -33 -2 -37 5 -18 l8 25 6 -25 c25
-95 26 -115 12 -126 -9 -7 -13 -18 -9 -29 6 -15 9 -15 20 6 12 21 13 11 14
-84 0 -59 -6 -136 -14 -170 -8 -34 -19 -82 -24 -107 -11 -47 -26 -109 -43
-172 -6 -23 -16 -38 -25 -38 -11 0 -15 -8 -13 -28 4 -32 -8 -55 -23 -46 -8 5
-9 -1 -5 -16 6 -24 -48 -160 -64 -160 -4 0 -13 -16 -19 -36 -9 -27 -15 -33
-21 -23 -6 10 -9 5 -9 -17 0 -27 -52 -141 -71 -154 -3 -3 -19 -30 -35 -60 -16
-30 -34 -58 -41 -63 -6 -4 -17 -23 -23 -43 -7 -19 -14 -33 -18 -30 -3 3 -14
-13 -26 -37 -35 -71 -80 -136 -94 -137 -8 0 -12 -6 -9 -12 6 -17 -12 -50 -23
-43 -4 3 -14 -8 -22 -25 -7 -16 -16 -30 -20 -30 -5 0 -8 -9 -8 -20 0 -11 -7
-23 -15 -26 -8 -4 -15 -12 -15 -19 0 -6 -9 -20 -20 -30 -20 -18 -50 -70 -50
-87 0 -9 -10 -23 -40 -57 -9 -9 -26 -37 -38 -61 -27 -57 -45 -80 -63 -81 -10
0 -11 -2 -2 -6 16 -6 -1 -41 -29 -61 -10 -7 -18 -21 -18 -30 -1 -9 -14 -33
-30 -52 -17 -19 -30 -38 -30 -42 0 -11 -38 -48 -50 -48 -15 0 -12 -20 3 -20 8
-1 7 -4 -3 -13 -8 -7 -21 -25 -29 -42 -12 -29 -13 -29 -28 -10 -15 19 -15 18
-10 -11 5 -26 3 -31 -11 -30 -11 1 -17 -7 -19 -24 -2 -43 -3 -45 -13 -30 -7
11 -10 7 -10 -17 0 -18 -4 -33 -10 -33 -5 0 -10 -6 -10 -14 0 -8 -17 -36 -38
-63 -20 -26 -45 -65 -54 -85 -15 -33 -26 -42 -48 -40 -3 0 -6 -8 -7 -19 -1
-10 -9 -31 -17 -46 -8 -16 -23 -43 -32 -60 -10 -18 -24 -33 -31 -33 -7 0 -13
-6 -13 -14 0 -32 -62 -124 -79 -118 -10 3 -12 0 -8 -11 4 -10 -8 -37 -28 -68
-19 -28 -35 -54 -35 -57 0 -13 -46 -72 -56 -72 -7 0 -15 -15 -18 -33 -3 -18
-16 -43 -29 -57 -12 -14 -29 -38 -37 -53 -13 -26 -15 -27 -22 -10 -7 14 -7 13
-4 -6 3 -15 -4 -35 -20 -56 -13 -17 -24 -39 -24 -48 0 -26 -20 -30 -29 -5 -9
20 -10 18 -11 -17 0 -31 -3 -37 -11 -25 -8 12 -10 9 -6 -13 3 -18 -2 -34 -12
-44 -9 -9 -16 -19 -17 -22 -3 -19 -20 -48 -36 -59 -10 -7 -18 -17 -18 -22 0
-5 -14 -29 -30 -53 -17 -25 -30 -52 -30 -61 0 -8 -6 -13 -13 -11 -6 3 -18 -7
-24 -22 -23 -50 -53 -94 -62 -89 -4 3 -6 -6 -3 -19 2 -14 0 -25 -6 -25 -6 0
-19 -16 -28 -35 -9 -19 -20 -32 -25 -29 -5 3 -9 -2 -9 -11 0 -24 -30 -76 -40
-70 -5 3 -12 -4 -15 -16 -4 -13 -12 -18 -22 -15 -13 5 -14 0 -9 -28 6 -29 3
-37 -14 -46 -11 -6 -20 -17 -20 -25 0 -8 -10 -24 -22 -35 -13 -12 -24 -25 -24
-31 -1 -5 -2 -14 -3 -20 0 -5 -5 -7 -11 -4 -5 3 -10 1 -10 -5 0 -6 -7 -18 -15
-26 -8 -9 -15 -24 -15 -35 0 -10 -4 -19 -8 -19 -5 0 -14 -12 -21 -27 -10 -22
-14 -24 -22 -12 -6 10 -9 7 -9 -13 0 -30 -66 -158 -81 -158 -5 0 -9 -9 -9 -20
0 -24 -20 -70 -31 -70 -5 0 -6 -6 -3 -13 3 -8 -10 -59 -29 -115 -21 -62 -33
-111 -29 -129 l5 -28 -21 21 c-11 11 -28 36 -37 55 -10 19 -27 44 -38 57 -18
19 -18 22 -4 22 9 0 17 5 17 10 0 6 -5 10 -10 10 -18 0 -90 82 -90 102 0 11
-13 30 -29 44 -16 13 -38 44 -50 68 -11 25 -26 48 -34 53 -12 7 -85 121 -147
228 -13 22 -35 50 -50 62 -15 12 -33 37 -41 55 -11 29 -54 98 -110 180 -11 15
-19 36 -19 47 0 25 -20 39 -20 14 -1 -11 -6 -5 -15 15 -8 17 -19 32 -25 32 -5
0 -10 5 -10 10 0 6 7 10 16 10 14 0 14 2 3 16 -9 11 -15 12 -17 5 -9 -26 -66
64 -111 172 -6 16 -19 31 -29 34 -16 4 -62 76 -62 96 0 4 -19 33 -42 64 -24
30 -54 72 -67 92 -13 20 -39 54 -58 75 -18 22 -33 45 -33 51 0 7 -19 42 -42
78 -24 36 -58 90 -76 120 -18 30 -44 65 -57 77 -15 15 -25 35 -25 52 0 22 -8
33 -30 46 -18 10 -40 37 -55 67 -13 28 -37 64 -52 80 -40 43 -63 81 -63 106 0
19 -28 57 -72 97 -10 9 -18 24 -18 32 0 9 -18 35 -40 59 -48 52 -74 97 -66
118 8 21 -11 53 -32 53 -26 0 -62 53 -55 79 4 17 2 20 -13 14 -13 -5 -16 -3
-11 10 4 11 2 14 -7 11 -8 -3 -16 5 -20 20 -3 14 -11 26 -16 26 -6 0 -15 11
-20 25 -5 14 -14 25 -20 25 -5 0 -10 10 -10 23 0 13 -13 35 -28 50 -16 15 -39
48 -51 72 -12 25 -26 47 -31 50 -5 3 -17 22 -26 42 -10 19 -28 46 -41 59 -13
13 -23 30 -23 37 0 8 -6 17 -13 20 -8 3 -25 29 -39 59 -14 29 -42 69 -62 88
-20 19 -36 41 -36 48 0 7 -11 28 -25 46 -14 18 -25 37 -25 43 0 5 -14 22 -30
38 -23 22 -29 36 -25 52 4 17 2 21 -10 17 -11 -4 -19 3 -26 25 -6 17 -15 31
-21 31 -5 0 -18 20 -29 45 -11 25 -29 49 -39 55 -11 6 -20 21 -20 33 0 12 -12
33 -25 46 -14 13 -25 32 -25 42 0 10 -4 19 -10 19 -5 0 -17 15 -26 33 -9 17
-29 46 -45 62 -15 17 -40 55 -54 87 -14 31 -32 62 -40 68 -8 7 -15 16 -15 21
0 13 -56 92 -84 118 -14 14 -26 35 -26 48 0 13 -4 23 -10 23 -5 0 -17 15 -26
33 -9 17 -28 42 -41 55 -13 12 -21 22 -18 22 3 0 -5 12 -19 27 -14 15 -30 40
-37 55 -6 15 -15 28 -20 28 -5 0 -9 7 -9 15 0 8 -4 15 -10 15 -5 0 -10 6 -10
13 0 8 -9 22 -20 32 -32 29 -55 84 -41 98 16 16 14 40 -4 33 -8 -3 -21 -8 -27
-11 -8 -3 -24 18 -41 55 -16 33 -36 66 -45 73 -18 13 -34 39 -64 98 -9 20 -24
39 -33 42 -19 8 -20 37 0 37 8 0 15 -4 15 -10 0 -5 5 -10 12 -10 6 0 4 7 -5
18 -10 10 -14 22 -10 25 3 4 -1 7 -11 7 -9 0 -14 -4 -11 -10 3 -5 -1 -10 -9
-10 -17 0 -45 38 -71 98 -10 24 -29 51 -41 61 -12 9 -32 37 -44 61 -13 25 -26
47 -29 50 -4 3 -21 28 -38 55 -18 28 -46 68 -62 91 -17 22 -39 60 -50 85 -17
37 -52 87 -100 145 -6 7 -7 15 -4 18 4 3 1 6 -5 6 -6 0 -19 15 -28 33 -9 17
-27 42 -39 55 -12 12 -30 43 -40 70 -9 26 -35 64 -56 84 -21 21 -39 41 -40 45
-3 33 -12 50 -42 82 -20 20 -45 55 -57 79 -12 23 -26 42 -30 42 -5 0 -11 8
-15 19 -3 10 -17 32 -31 47 -41 48 -53 68 -60 103 -1 7 -11 21 -21 31 -10 9
-29 36 -43 60 -14 23 -40 59 -57 80 -18 21 -33 45 -33 54 0 9 -7 19 -15 22 -8
4 -15 10 -15 16 0 5 -16 30 -35 55 -19 25 -35 50 -35 55 0 6 -9 23 -21 39 -11
16 -17 29 -14 29 4 0 -12 21 -34 46 -22 26 -45 61 -49 78 -5 17 -25 47 -46 68
-20 20 -36 43 -36 52 0 9 -4 16 -9 16 -5 0 -12 7 -15 16 -5 13 -2 15 16 9 13
-3 46 -13 73 -20z"/>
</g>
</svg>
